<?xml version="1.0" encoding="UTF-8"?>
<svg id="Laag_1" data-name="Laag 1" xmlns="http://www.w3.org/2000/svg" xmlns:xlink="http://www.w3.org/1999/xlink" viewBox="0 0 352.68 232.27">
  <defs>
    <style>
      .cls-1 {
        fill: url(#Naamloos_verloop_2);
      }

      .cls-2 {
        fill: url(#Naamloos_verloop_3);
      }

      .cls-3 {
        fill: #fff;
      }

      .cls-4 {
        fill: #a52b00;
      }

      .cls-5 {
        fill: url(#Naamloos_verloop_3-2);
      }
    </style>
    <linearGradient id="Naamloos_verloop_2" data-name="Naamloos verloop 2" x1="165.21" y1="166.29" x2="517.89" y2="166.29" gradientTransform="translate(-165.21 280.41) scale(1 -1)" gradientUnits="userSpaceOnUse">
      <stop offset="0" stop-color="#f74c00"/>
      <stop offset=".33" stop-color="#f74c00"/>
      <stop offset="1" stop-color="#f49600"/>
    </linearGradient>
    <linearGradient id="Naamloos_verloop_3" data-name="Naamloos verloop 3" x1="-641.91" y1="31.77" x2="-641.62" y2="31.77" gradientTransform="translate(-9308.78 -192744.09) rotate(-90) scale(300.61)" gradientUnits="userSpaceOnUse">
      <stop offset="0" stop-color="#cc3a00"/>
      <stop offset=".15" stop-color="#cc3a00"/>
      <stop offset=".74" stop-color="#f74c00"/>
      <stop offset="1" stop-color="#f74c00"/>
    </linearGradient>
    <linearGradient id="Naamloos_verloop_3-2" data-name="Naamloos verloop 3" x1="-641.93" y1="33.04" x2="-641.64" y2="33.04" gradientTransform="translate(-8771.27 -172375.95) rotate(-90) scale(268.9)" xlink:href="#Naamloos_verloop_3"/>
  </defs>
  <path class="cls-4" d="m175.47,100.09c-38.36,0-73.21,4.61-98.99,12.11v64.19c25.78,7.5,60.63,12.11,98.99,12.11,43.87,0,83.18-6.03,109.57-15.57v-57.3c-26.4-9.54-65.71-15.57-109.57-15.57"/>
  <path class="cls-4" d="m324.59,152.26l-4.51-9.31v-1.04c0-10.54-10.97-20.27-29.44-28.06v56.16c8.64-3.66,15.62-7.69,20.6-12.06-1.47,5.93-6.5,17.9-10.54,26.3-6.6,12.06-8.97,22.5-8.69,23.03.19.33,2.47-3.13,5.74-8.78,7.74-11.01,22.36-32,25.26-37.36,3.32-6.08,1.42-8.88,1.42-8.88"/>
  <path class="cls-4" d="m33.66,142.48c0,2.04.43,4.04,1.19,5.98l-2.71,4.8s-2.14,2.8,1.66,8.69c3.37,5.22,20.13,25.59,28.96,36.27,3.8,5.46,6.36,8.83,6.6,8.5.33-.52-2.37-10.78-9.92-22.5-3.51-6.31-7.74-14.62-10.25-20.79,7.07,4.46,16.28,8.5,27.25,12.01v-65.94c-26.44,8.4-42.82,20.08-42.82,32.95"/>
  <path class="cls-1" d="m170.63,2.43l-8.78,14.67-4.27.38-11.39-12.68c-1.09-1.33-2.8-1.9-4.46-1.52s-2.99,1.71-3.56,3.18l-5.74,16.33c-1.42.38-2.8.71-3.94,1.28l-13.63-10.3c-1.28-.85-3.23-1.14-4.61-.57-1.61.85-2.71,2.14-3.04,3.85l-2.8,17.28c-1.14.57-2.28,1.38-3.66,1.99l-15-7.07c-1.52-.81-3.42-.66-4.75.43-1.38.85-2.18,2.61-2.28,4.27l.57,17.47c-.9.81-1.99,1.85-3.13,2.66l-16.14-3.85c-1.71-.57-3.37.05-4.65,1.38-1.09,1.04-1.66,3.04-1.28,4.65l3.89,16.9c-.85,1.04-1.76,2.09-2.56,3.32l-16.85-.66c-1.71-.09-3.28.76-4.13,2.28-.81,1.52-1.14,3.47-.28,5.08l6.88,15.71c-.85,1.28-1.47,2.52-2.09,3.8l-16.28,2.85c-1.9.19-3.23,1.47-3.8,2.99-.57,1.71-.38,3.61.43,4.98l9.87,14.01c-.24.24-.19.47-.19.71L1.33,157.53s-4.04,3.23,1.95,11.11c5.36,6.74,33.19,33.8,47.86,48.09,6.12,7.12,10.35,11.54,10.82,11.3.66-.76-2.9-13.91-15-29.15-9.35-13.82-21.51-35.04-18.85-37.41,0,0,3.23-4.13,9.92-7.12h0q-.16-.16,0,0c.24.24,137.63,63.48,265.25,1,14.62-2.71,23.45,5.13,23.45,5.13,3.04,1.9-4.89,23.69-11.3,38.17-8.88,16.38-10.16,29.2-9.4,29.58.47.19,3.66-4.65,8.26-12.49,11.35-15.62,32.47-45.53,36.37-52.79,4.56-8.31,0-10.78,0-10.78l-29.48-21.65c-.33-.95-.66-1.85-.76-3.04l9.54-14.01c1.09-1.28,1.14-3.23.52-4.84s-1.9-2.71-3.61-3.04l-16.57-2.85c-.57-1.14-1.19-2.52-1.76-3.7l6.74-15.95c.81-1.52.66-3.42-.43-4.98-.85-1.38-2.33-2.18-4.04-2.04l-16.76.52c-.81-1.14-1.85-2.23-2.71-3.37l3.8-16.85c.33-1.71-.09-3.61-1.14-4.7-1.33-1.33-3.04-1.9-4.7-1.52l-16.19,4.04c-1.04-.85-2.09-1.76-3.13-2.85l.43-17.28c.09-1.71-.76-3.28-2.04-4.37-1.52-1.04-3.23-1.14-4.84-.28l-14.95,7.07c-1.23-.62-2.52-1.47-3.8-2.09l-2.71-17.04c-.19-1.9-1.47-3.23-2.99-3.8-1.52-.81-3.42-.66-4.75.43l-13.48,10.06c-1.23-.38-2.47-.76-3.94-1.09l-5.74-16.28c-.62-1.61-1.95-2.94-3.66-3.28s-3.32.28-4.65,1.61l-11.35,12.72c-1.19-.14-2.66-.47-4.13-.62l-8.69-14.58c-.85-1.61-2.37-2.42-4.04-2.52-1.71-.09-3.28,1-4.08,2.52l.05-.09ZM37.89,154.3h0Z"/>
  <path d="m128.99,192.95c-.52-.43-.81-.71-.81-.71l45.1-3.7c-36.79-48.52-66.23-9.88-69.36-5.55v9.97h25.11-.05Z"/>
  <path d="m222.85,192.43c.52-.43.81-.71.81-.71l-43.35-3.18c36.79-50.51,64.47-10.4,67.61-6.08v9.97h-25.11.05Z"/>
  <path class="cls-2" d="m292.07,144.24s-4.89,19.61-35.56,40.21l-8.55,2.04s-27.82-50.7-67.18,6.41c0,0,12.25-7.12,45.15,1.61,0,0-15.14,23.17-45.58,22.41,0,0,29.15,35.08,73.64-15.57,0,0,47-18.18,50.8-57.11h-12.72Z"/>
  <path d="m200.78,119.12s13.77-15.05,27.49,0c0,0,10.82,20.08,0,30.1,0,0-17.71,14.05-27.49,0,0,0-11.77-11.06,0-30.1"/>
  <path class="cls-3" d="m216.73,124.68c0,5.89-3.47,10.63-7.74,10.63s-7.74-4.75-7.74-10.63,3.47-10.63,7.74-10.63,7.74,4.75,7.74,10.63"/>
  <path d="m139.39,114.99s23.6-10.44,30.05,12.87c0,0,6.74,27.16-19.37,28.72,0,0-33.33-6.41-10.68-41.59"/>
  <path class="cls-3" d="m151.26,125.06c0,6.03-3.56,10.97-7.98,10.97s-7.98-4.89-7.98-10.97,3.56-10.97,7.98-10.97,7.98,4.89,7.98,10.97"/>
  <path class="cls-5" d="m103.97,204.53c43.11,55.26,63.52,10.87,63.52,10.87-24.21-2.71-41.35-18.85-41.35-18.85,29.06-3.7,45.81-3.99,45.81-3.99-38.88-51.27-70.41-4.84-70.41-4.84-7.88-2.9-15.95-13.82-21.93-23.98l-24.12-7.12c27.73,47.19,48.47,47.86,48.47,47.86v.05Z"/>
</svg>