<?xml version="1.0" encoding="UTF-8"?>
<svg id="Laag_1" data-name="Laag 1" xmlns="http://www.w3.org/2000/svg" xmlns:xlink="http://www.w3.org/1999/xlink" viewBox="0 0 110 110">
  <defs>
    <style>
      .cls-1 {
        fill: url(#Naamloos_verloop_2);
      }

      .cls-2 {
        fill: url(#Naamloos_verloop_3);
      }

      .cls-3 {
        fill: #fff;
      }

      .cls-4 {
        fill: #fbcfa9;
      }

      .cls-5 {
        fill: #b33119;
      }

      .cls-6 {
        fill: #a52b00;
      }

      .cls-7 {
        fill: url(#Naamloos_verloop_3-2);
      }
    </style>
    <linearGradient id="Naamloos_verloop_2" data-name="Naamloos verloop 2" x1="177.97" y1="10.04" x2="263.2" y2="10.04" gradientTransform="translate(-165.21 38.67)" gradientUnits="userSpaceOnUse">
      <stop offset="0" stop-color="#f74c00"/>
      <stop offset=".33" stop-color="#f74c00"/>
      <stop offset="1" stop-color="#f49600"/>
    </linearGradient>
    <linearGradient id="Naamloos_verloop_3" data-name="Naamloos verloop 3" x1="-662.65" y1="505.95" x2="-662.59" y2="505.95" gradientTransform="translate(152166.76 -199125.61) rotate(-90) scale(300.61 -300.61)" gradientUnits="userSpaceOnUse">
      <stop offset="0" stop-color="#cc3a00"/>
      <stop offset=".15" stop-color="#cc3a00"/>
      <stop offset=".74" stop-color="#f74c00"/>
      <stop offset="1" stop-color="#f74c00"/>
    </linearGradient>
    <linearGradient id="Naamloos_verloop_3-2" data-name="Naamloos verloop 3" x1="-662.44" y1="504.39" x2="-662.37" y2="504.39" gradientTransform="translate(135668.71 -178052.68) rotate(-90) scale(268.9 -268.9)" xlink:href="#Naamloos_verloop_3"/>
  </defs>
  <rect class="cls-5" width="110" height="110"/>
  <g>
    <path class="cls-4" d="m7.32,87.65h1.19v-10.68h-1.19v-3.89h10.9c2.04,0,3.6.42,4.68,1.26,1.08.84,1.61,2.2,1.61,4.08,0,1.06-.21,1.98-.64,2.75-.43.78-1.04,1.31-1.83,1.61l.02.24c1.52.24,2.28,1.17,2.28,2.8v1.83h1.12v3.89h-7.53v-5.58c0-.62-.09-1.08-.27-1.4-.18-.32-.47-.53-.85-.64-.39-.11-.94-.17-1.65-.17v3.89h1.57v3.89H7.32v-3.89Zm9.12-6.79c.46,0,.8-.12,1.03-.37.23-.25.34-.63.34-1.15v-.85c0-.52-.12-.91-.34-1.15s-.57-.37-1.03-.37h-1.28v3.89h1.28Z"/>
    <path class="cls-4" d="m41.88,87.65v3.89h-6.51v-1.85c-1.14,1.46-2.56,2.18-4.27,2.18-1.31,0-2.3-.41-2.96-1.23-.66-.82-.99-1.95-.99-3.39v-5.01h-1.04v-3.89h6.5v7.79c0,.52.11.91.34,1.15.23.25.57.37,1.03.37s.8-.12,1.03-.37c.23-.25.34-.63.34-1.15v-3.89h-1.28v-3.89h6.74v9.31h1.04Z"/>
    <path class="cls-4" d="m42.55,90.92v-3.51h3.85v.24c0,.76.48,1.14,1.45,1.14.85,0,1.28-.29,1.28-.88,0-.32-.12-.55-.37-.71-.25-.16-.68-.29-1.29-.4l-1.19-.21c-2.48-.44-3.73-1.85-3.73-4.23,0-1.38.52-2.45,1.57-3.21s2.45-1.14,4.23-1.14c1.98,0,3.65.33,5.01,1v3.3h-3.61v-.24c0-.32-.11-.56-.32-.72-.21-.17-.53-.25-.94-.25-.79,0-1.19.25-1.19.76,0,.27.11.47.33.62.22.14.63.28,1.21.4l1.35.26c1.41.27,2.41.77,3.02,1.5.6.73.9,1.66.9,2.8,0,1.44-.5,2.54-1.51,3.3s-2.43,1.14-4.28,1.14c-1.99,0-3.92-.32-5.77-.95Z"/>
    <path class="cls-4" d="m56.95,90.65c-.85-.82-1.27-2.19-1.27-4.12v-4.3h-1.04v-3.89c.6,0,1.05-.15,1.35-.46.3-.31.45-.73.45-1.27v-1.07h5.03v2.8h3.2v3.89h-3.2v3.89c0,.52.11.91.34,1.15s.57.37,1.03.37c.6,0,1.26-.07,1.97-.21v3.73c-.44.17-1.04.34-1.79.49-.75.15-1.52.23-2.29.23-1.68,0-2.94-.41-3.79-1.22Z"/>
    <path class="cls-4" d="m79.3,73.07h7.79v3.89h-1.19v14.58h-6.67l-6.96-10.71v6.81h1.14v3.89h-7.79v-3.89h1.19v-10.68h-1.19v-3.89h8.57l6.24,9.52v-5.63h-1.14v-3.89Z"/>
    <path class="cls-4" d="m87.99,91.54v-3.89h1.19v-10.68h-1.19v-3.89h10.02v3.89h-2.18v10.68h2.14v-2.18h4.72v6.08h-14.7Z"/>
  </g>
  <g id="Layer-1">
    <path class="cls-6" d="m55.18,45.34c-9.27,0-17.69,1.11-23.92,2.93v15.51c6.23,1.82,14.65,2.93,23.92,2.93,10.61,0,20.1-1.46,26.48-3.76v-13.85c-6.38-2.3-15.87-3.76-26.48-3.76"/>
    <path class="cls-6" d="m91.21,57.94l-1.09-2.25c0-.09.01-.17.01-.26,0-2.55-2.65-4.9-7.12-6.79v13.57c2.08-.88,3.77-1.86,4.98-2.91-.36,1.43-1.57,4.32-2.54,6.36-1.59,2.91-2.17,5.44-2.1,5.57.05.08.59-.76,1.39-2.12,1.87-2.66,5.4-7.73,6.11-9.03.8-1.47.35-2.14.35-2.14"/>
    <path class="cls-6" d="m20.91,55.59c0,.49.1.98.29,1.45l-.65,1.16s-.52.68.4,2.1c.81,1.26,4.86,6.18,7,8.76.92,1.32,1.54,2.14,1.6,2.06.09-.12-.57-2.61-2.4-5.44-.85-1.52-1.87-3.54-2.48-5.02,1.7,1.08,3.94,2.06,6.59,2.9v-15.93c-6.39,2.03-10.35,4.85-10.35,7.97"/>
    <path class="cls-1" d="m54.01,21.73l-2.12,3.55-1.04.09-2.76-3.06c-.26-.32-.68-.46-1.08-.37-.4.09-.72.41-.86.77l-1.39,3.95c-.34.09-.68.18-.96.32l-3.29-2.49c-.31-.2-.78-.28-1.11-.13-.39.21-.65.52-.73.93l-.68,4.17c-.28.14-.55.34-.88.48l-3.63-1.71c-.37-.2-.83-.16-1.15.1-.33.2-.52.63-.55,1.03l.14,4.22c-.21.19-.48.45-.75.65l-3.91-.93c-.42-.14-.81.01-1.13.33-.27.26-.4.73-.31,1.13l.94,4.09c-.21.25-.42.5-.62.81l-4.07-.17c-.41-.02-.79.19-.99.55-.2.37-.27.84-.07,1.22l1.66,3.79c-.2.31-.35.61-.5.91l-3.94.69c-.46.04-.78.36-.92.72-.14.42-.1.88.11,1.21l2.38,3.38c-.05.06-.05.12-.04.18l-6.68,7.07s-.97.78.47,2.68c1.3,1.62,8.01,8.16,11.56,11.62,1.48,1.72,2.5,2.79,2.61,2.73.16-.19-.7-3.36-3.63-7.04-2.26-3.34-5.2-8.47-4.56-9.05,0,0,.78-1,2.4-1.72h0q-.06-.05,0,0s33.27,15.34,64.1.24c3.53-.66,5.67,1.24,5.67,1.24.74.46-1.18,5.72-2.73,9.22-2.15,3.95-2.45,7.05-2.27,7.15.12.05.89-1.12,2-3.01,2.74-3.77,7.84-11,8.79-12.76,1.1-2.01,0-2.61,0-2.61l-7.12-5.23c-.08-.22-.16-.45-.18-.74l2.31-3.39c.26-.31.28-.78.13-1.17s-.46-.65-.88-.73l-4-.69c-.14-.28-.29-.61-.43-.89l1.63-3.85c.2-.37.16-.83-.11-1.21-.2-.33-.57-.53-.97-.49l-4.05.12c-.2-.27-.45-.54-.65-.81l.92-4.08c.08-.41-.02-.87-.27-1.13-.32-.32-.74-.46-1.13-.36l-3.91.98c-.25-.21-.5-.42-.76-.69l.1-4.18c.02-.41-.19-.79-.5-1.06-.37-.26-.78-.28-1.17-.07l-3.62,1.71c-.3-.15-.61-.35-.91-.5l-.65-4.11c-.04-.46-.36-.78-.72-.92-.37-.2-.83-.16-1.15.1l-3.26,2.43c-.3-.09-.6-.18-.95-.26l-1.39-3.93c-.15-.39-.47-.71-.88-.79-.41-.08-.81.07-1.12.39l-2.74,3.08c-.29-.03-.65-.12-1-.14l-2.1-3.52c-.21-.39-.57-.59-.98-.61-.41-.02-.79.24-.99.61ZM21.94,58.44h0Z"/>
    <path d="m43.94,67.78c-.13-.11-.19-.17-.19-.17l10.9-.89c-8.89-11.73-16.01-2.38-16.77-1.34v2.41h6.06Z"/>
    <path d="m66.63,67.65c.13-.11.19-.17.19-.17l-10.47-.77c8.89-12.21,15.58-2.51,16.34-1.47v2.41s-6.06,0-6.06,0Z"/>
    <path class="cls-2" d="m83.36,56.01s-1.18,4.74-8.6,9.72l-2.06.49s-6.72-12.26-16.24,1.55c0,0,2.96-1.72,10.91.39,0,0-3.66,5.6-11.01,5.41,0,0,7.05,8.48,17.79-3.76,0,0,11.36-4.39,12.28-13.81h-3.06Z"/>
    <path d="m61.3,49.94s3.32-3.64,6.65,0c0,0,2.61,4.85,0,7.28,0,0-4.27,3.4-6.65,0,0,0-2.85-2.67,0-7.28"/>
    <path class="cls-3" d="m65.15,51.29c0,1.42-.84,2.57-1.87,2.57s-1.87-1.15-1.87-2.57c0-1.42.84-2.57,1.87-2.57,1.03,0,1.87,1.15,1.87,2.57"/>
    <path d="m46.46,48.94s5.7-2.52,7.26,3.11c0,0,1.63,6.57-4.68,6.94,0,0-8.05-1.55-2.58-10.05"/>
    <path class="cls-3" d="m49.32,51.38c0,1.46-.86,2.65-1.92,2.65s-1.92-1.19-1.92-2.65.86-2.65,1.92-2.65,1.92,1.19,1.92,2.65"/>
    <path class="cls-7" d="m37.9,70.58c10.41,13.36,15.35,2.63,15.35,2.63-5.85-.66-9.99-4.55-9.99-4.55,7.02-.9,11.07-.97,11.07-.97-9.39-12.39-17.01-1.17-17.01-1.17-1.9-.69-3.86-3.34-5.3-5.79l-5.83-1.72c6.71,11.4,11.71,11.57,11.71,11.57Z"/>
  </g>
</svg>